<?xml version="1.0" ?><!DOCTYPE svg  PUBLIC '-//W3C//DTD SVG 1.1//EN'  'http://www.w3.org/Graphics/SVG/1.1/DTD/svg11.dtd'><svg enable-background="new 0 0 24 24" height="24px" id="Layer_1" version="1.1" viewBox="0 0 24 24" width="24px" xml:space="preserve" xmlns="http://www.w3.org/2000/svg" xmlns:xlink="http://www.w3.org/1999/xlink"><g><path d="M18.4,8.6l-5-5L16,1.1c0,0,0.3-0.3,0.1-0.7S15.5,0,15.5,0h-7c0,0-0.5,0-0.7,0.3S8,1.1,8,1.1l2.6,2.6l-5,5   c-3.5,3.5-3.5,9.2,0,12.7s9.2,3.5,12.7,0S21.9,12.2,18.4,8.6z M9.6,1h4.9L12,3.4L9.6,1z M16.9,20c-2.7,2.7-7.2,2.7-9.9,0   c-2.7-2.7-2.7-7.2,0-9.9l5-5l4.9,5C19.7,12.8,19.7,17.2,16.9,20z"/><path d="M12,10c1.1,0,2,0.9,2,2h1c0-1.3-0.8-2.4-2-2.8V8h-2v1.2C9.8,9.6,9,10.7,9,12c0,1.7,1.3,3,3,3c1.1,0,2,0.9,2,2s-0.9,2-2,2   s-2-0.9-2-2H9c0,1.3,0.8,2.4,2,2.8V21h2v-1.2c1.2-0.4,2-1.5,2-2.8c0-1.7-1.3-3-3-3c-1.1,0-2-0.9-2-2S10.9,10,12,10z"/></g></svg>