<?xml version="1.0" ?><!DOCTYPE svg  PUBLIC '-//W3C//DTD SVG 1.1//EN'  'http://www.w3.org/Graphics/SVG/1.1/DTD/svg11.dtd'><svg enable-background="new 0 0 80 80" height="80px" id="Icons" version="1.1" viewBox="0 0 80 80" width="80px" xml:space="preserve" xmlns="http://www.w3.org/2000/svg" xmlns:xlink="http://www.w3.org/1999/xlink"><path d="M45.265,18.018c0.495,0,0.99,0.025,1.485,0.076l-7.633,7.633l2.611,12.545l12.545,2.611l7.623-7.623  c0.38,3.847-0.758,7.563-3.348,10.153c-2.211,2.21-5.29,3.428-8.672,3.428c-1.558,0-3.136-0.252-4.688-0.749l-2.904-0.93  l-2.156,2.156L27.097,60.348c-0.994,0.994-2.316,1.542-3.723,1.542c-1.406,0-2.728-0.548-3.723-1.542  c-0.994-0.994-1.542-2.316-1.542-3.723c0-1.406,0.548-2.728,1.542-3.723l13.031-13.031l2.156-2.156l-0.93-2.904  c-1.622-5.066-0.621-10.061,2.679-13.361C38.801,19.237,41.883,18.018,45.265,18.018 M45.265,13.018  c-4.551,0-8.928,1.613-12.213,4.898c-4.773,4.773-6.008,11.854-3.905,18.421L16.116,49.368c-4.009,4.009-4.009,10.508,0,14.516  c2.004,2.004,4.631,3.006,7.258,3.006c2.627,0,5.254-1.002,7.258-3.006l13.031-13.031c2.049,0.656,4.149,0.987,6.213,0.987  c4.549,0,8.924-1.609,12.208-4.892c5.878-5.878,6.403-15.254,1.912-22.859L52.647,35.438l-6.693-1.393l-1.393-6.692l11.349-11.349  C52.556,14.023,48.857,13.018,45.265,13.018L45.265,13.018z"/></svg>