<?xml version="1.0" ?><!DOCTYPE svg  PUBLIC '-//W3C//DTD SVG 1.1//EN'  'http://www.w3.org/Graphics/SVG/1.1/DTD/svg11.dtd'><svg height="6.82666in" style="shape-rendering:geometricPrecision; text-rendering:geometricPrecision; image-rendering:optimizeQuality; fill-rule:evenodd; clip-rule:evenodd" viewBox="0 0 6.82666 6.82666" width="6.82666in" xml:space="preserve" xmlns="http://www.w3.org/2000/svg" xmlns:xlink="http://www.w3.org/1999/xlink"><defs><style type="text/css">
   <![CDATA[
    .fil1 {fill:none}
    .fil0 {fill:#212121;fill-rule:nonzero}
   ]]>
  </style></defs><g id="Layer_x0020_1"><path class="fil0" d="M4.69945 3.56751c-0.00542913,-0.546146 0.370646,-0.853894 0.507157,-0.948614 -0.0994055,-0.130937 -0.215374,-0.221098 -0.329799,-0.28311 -0.202555,-0.109776 -0.40011,-0.132063 -0.493787,-0.135984l-0.00312598 -0.000208661c-0.220807,-0.0223543 -0.441,0.0644567 -0.620917,0.13539 -0.122815,0.0484213 -0.228173,0.0899606 -0.313398,0.0899606 -0.0933583,0 -0.201673,-0.0429882 -0.323252,-0.0912323 -0.147594,-0.0585709 -0.316283,-0.125512 -0.485445,-0.122445l-0.000208661 0c-0.197839,0.00293307 -0.388122,0.0603465 -0.55463,0.161264 -0.168028,0.101839 -0.311862,0.247992 -0.414913,0.42722 -0.18811,0.326421 -0.228539,0.725433 -0.178913,1.12002 0.0612756,0.487189 0.259567,0.966252 0.487567,1.29547 0.101362,0.14661 0.212354,0.302146 0.33622,0.418185 0.11787,0.110429 0.247728,0.185106 0.39239,0.179811l0 -7.87402e-006c0.13428,-0.00535433 0.232508,-0.0472047 0.334075,-0.0904724 0.127559,-0.0543425 0.25998,-0.110756 0.47187,-0.110756 0.202504,0 0.329362,0.0548976 0.45135,0.107681 0.10622,0.0459606 0.208402,0.0901732 0.357823,0.0873661 0.151882,-0.0028189 0.277283,-0.0730827 0.38863,-0.177213 0.115764,-0.108264 0.218248,-0.255106 0.319091,-0.402406 0.185756,-0.271445 0.283925,-0.535843 0.31852,-0.638921 -0.152894,-0.0741299 -0.640559,-0.360933 -0.646303,-1.02099zm0.607374 -0.887291c-0.0475197,0.0294016 -0.506815,0.313602 -0.501122,0.886457 0.00600787,0.690606 0.591579,0.930008 0.623902,0.94322l0.000208661 0 0.00139764 0.00057874 0.0459449 0.0190236 -0.0157362 0.0470157c-0.000933071,0.0027874 0.000125984,-0.000177165 -0.00123622,0.00419685 -0.0149409,0.0478701 -0.116228,0.372358 -0.345035,0.706713 -0.103827,0.151661 -0.20961,0.303094 -0.334508,0.419902 -0.129319,0.120941 -0.277008,0.202579 -0.459457,0.205969 -0.171965,0.00322835 -0.284547,-0.0454843 -0.401579,-0.096122 -0.111594,-0.0482874 -0.22765,-0.0985079 -0.409264,-0.0985079 -0.19078,0 -0.312732,0.0519528 -0.430201,0.102 -0.110575,0.0471063 -0.217516,0.0926654 -0.371579,0.098811l-0.000208661 0c-0.177898,0.0066063 -0.332161,-0.0801142 -0.46926,-0.208559 -0.131165,-0.122882 -0.246083,-0.283799 -0.350803,-0.435264 -0.23639,-0.341331 -0.441972,-0.837972 -0.505488,-1.34297 -0.0522441,-0.415386 -0.0085748,-0.837354 0.192252,-1.18584 0.11211,-0.194984 0.268799,-0.35411 0.451992,-0.465142 0.182358,-0.110524 0.390996,-0.173421 0.608169,-0.176677l0 -3.93701e-006c0.190134,-0.00344882 0.369409,0.0676969 0.52628,0.129949 0.11102,0.0440551 0.209933,0.083311 0.284087,0.083311 0.0655118,0 0.162079,-0.0380748 0.27465,-0.0824567 0.190122,-0.0749567 0.422717,-0.16665 0.668661,-0.142193 0.103287,0.00449213 0.318421,0.0292323 0.538335,0.148413 0.140094,0.0759252 0.282193,0.189913 0.399004,0.36087l0.0307992 0.0450827 -0.0460079 0.0297087c-0.00246063,0.00159055 -6.69291e-005,-3.14961e-005 -0.00419685,0.00251969zm-1.21301 -0.970539c0.0854921,-0.103744 0.156457,-0.228583 0.20039,-0.363409 0.0343858,-0.105535 0.052063,-0.217012 0.0469409,-0.328969 -0.101421,0.0123031 -0.210311,0.0484094 -0.31376,0.101606 -0.122004,0.0627362 -0.23548,0.148791 -0.319535,0.247252l-0.000208661 0.000208661c-0.0817087,0.0946457 -0.158008,0.220016 -0.205323,0.35789 -0.0347835,0.10135 -0.0536693,0.208953 -0.0470354,0.31513 0.106642,0.00019685 0.213657,-0.0280709 0.313067,-0.0754882 0.126516,-0.0603504 0.240236,-0.151366 0.325362,-0.254303l0.000102362 8.26772e-005zm0.301642 -0.330496c-0.0480866,0.147579 -0.12589,0.284358 -0.219665,0.398118l0 0.000208661c-0.0946181,0.114413 -0.221004,0.215571 -0.361606,0.282642 -0.129043,0.0615551 -0.270496,0.0947047 -0.411256,0.0837323l-0.0430787 -0.00335827 -0.00567323 -0.0428937c-0.0182874,-0.138331 0.00283071,-0.278366 0.0473071,-0.407957 0.0517559,-0.150803 0.135591,-0.288402 0.225547,-0.392665l-1.5748e-005 -1.5748e-005c0.0930906,-0.109047 0.217929,-0.203925 0.351622,-0.272669 0.134146,-0.0689803 0.278217,-0.112114 0.409343,-0.117457l0.0495669 -0.00201969 0.00543307 0.0495197c0.0158819,0.144827 -0.00343307,0.289496 -0.0475236,0.424815z"/></g><rect class="fil1" height="6.82666" width="6.82666"/></svg>